<svg version="1.1" id="Layer_1" xmlns="http://www.w3.org/2000/svg" xmlns:xlink="http://www.w3.org/1999/xlink" x="0px" y="0px"
	 width="100%" viewBox="0 0 496 496" enable-background="new 0 0 496 496" xml:space="preserve">
<path fill="#000000" opacity="1.000000" stroke="none" 
	d="
M236.342575,427.824768 
	C204.191467,413.450134 182.197739,390.236542 171.206100,356.962341 
	C169.589172,352.067535 168.077881,347.106598 167.550888,341.961365 
	C167.040649,336.979675 164.949799,335.142761 159.570358,335.211090 
	C133.916077,335.537018 108.255386,335.376099 82.597069,335.333588 
	C80.692291,335.330444 78.622849,335.929688 76.828354,334.490143 
	C76.889145,332.178467 78.845520,332.192078 80.250191,331.525116 
	C86.414558,328.598236 92.706360,325.885773 97.271996,320.463104 
	C100.189018,316.998474 101.662643,313.069489 101.662392,308.556213 
	C101.658806,245.743103 101.674187,182.929977 101.637718,120.116898 
	C101.633247,112.408989 98.136711,107.799042 90.141815,105.110298 
	C85.698662,103.616028 81.073006,102.664421 76.155693,101.369797 
	C77.637924,98.771523 79.577194,99.090385 81.282677,99.088783 
	C116.104675,99.056038 150.932709,98.658180 185.746643,99.185310 
	C209.186523,99.540215 232.114029,103.443100 253.454254,113.988678 
	C284.611084,129.385284 301.491913,155.151627 307.050720,188.766739 
	C307.861328,193.668671 310.375732,194.200684 313.922974,194.642151 
	C330.333160,196.684509 345.768616,201.900162 359.986786,210.153534 
	C393.282562,229.481033 412.091400,258.548096 417.500854,296.651276 
	C421.331146,323.631348 418.051605,349.436646 405.792908,373.793549 
	C391.343567,402.503052 368.110718,421.337311 337.826263,431.244141 
	C303.835419,442.363403 270.013306,441.035645 236.342575,427.824768 
M309.245453,211.478928 
	C309.144958,218.307388 308.515625,225.090393 307.477478,231.836975 
	C300.141724,279.509979 273.068604,310.700378 227.997681,326.714081 
	C221.145355,329.148712 214.031876,330.848267 206.768845,332.966675 
	C208.652466,343.293671 212.054428,353.003784 216.265915,362.404449 
	C228.081665,388.778931 244.836014,410.799561 271.428040,423.972992 
	C303.572693,439.897156 341.648346,431.031586 362.576843,402.466949 
	C375.625305,384.657471 380.493103,364.039032 381.577576,342.436127 
	C382.288910,328.265656 380.704926,314.171844 377.580658,300.337280 
	C370.826019,270.426971 357.894012,243.813232 334.836670,222.912491 
	C327.471375,216.236069 319.386658,210.491989 309.558472,206.755280 
	C309.432373,208.466248 309.348816,209.600571 309.245453,211.478928 
M223.901047,119.587402 
	C215.891129,115.082916 207.561264,111.470551 198.591965,109.183403 
	C180.417130,104.548882 161.908813,105.661926 143.460327,105.240456 
	C138.250748,105.121429 137.078033,106.885674 137.088821,111.817169 
	C137.233810,178.132416 137.180435,244.448105 137.177353,310.763672 
	C137.177292,312.096619 137.294785,313.438873 137.176361,314.760590 
	C136.899780,317.847931 138.185730,319.716064 141.079376,320.896240 
	C147.571793,323.544373 154.212067,325.609192 161.060211,327.137146 
	C164.236801,327.845917 164.958054,326.592010 164.901840,323.876648 
	C164.812180,319.545624 164.603653,315.206635 164.762619,310.882660 
	C165.449463,292.199677 169.311249,274.224640 177.996384,257.576019 
	C194.752335,225.456421 221.683792,206.353088 256.261230,197.283005 
	C268.226807,194.144287 268.469360,194.121948 265.595795,182.072845 
	C259.477264,156.417343 247.337036,134.636063 223.901047,119.587402 
M226.240494,321.740631 
	C229.497330,320.083954 232.926407,318.694794 235.982727,316.726746 
	C254.419571,304.855133 263.384705,286.958344 267.617615,266.185242 
	C271.569427,246.791595 271.498505,227.238281 269.765259,207.615814 
	C269.175720,200.941437 268.482697,200.244614 261.802277,201.832397 
	C237.941238,207.503601 222.233551,222.728210 212.298157,244.499329 
	C201.657318,267.816284 200.701645,292.376587 203.697998,317.307465 
	C204.092346,320.588623 203.770020,324.329773 206.416092,327.359924 
	C212.947159,326.109558 219.423889,324.756500 226.240494,321.740631 
z"/>
</svg>