<svg version="1.1" id="Layer_1" xmlns="http://www.w3.org/2000/svg" xmlns:xlink="http://www.w3.org/1999/xlink" x="0px" y="0px"
	 width="100%" viewBox="0 0 496 496" enable-background="new 0 0 496 496" xml:space="preserve">
<path fill="#000000" opacity="1.000000" stroke="none" 
	d="
M171.000519,123.883072 
	C188.642990,124.199829 205.824692,122.963715 222.926193,124.732208 
	C244.631989,126.976837 263.815674,134.015259 275.859650,153.921066 
	C279.443512,159.844330 281.734253,166.305771 282.848389,173.026978 
	C283.506073,176.994476 285.319305,178.129288 288.895844,178.737411 
	C309.446655,182.231628 326.320435,191.912018 337.109497,210.087036 
	C360.582245,249.628769 344.040192,310.316162 285.243530,317.379639 
	C262.712494,320.086395 242.214569,315.479797 224.584564,300.650421 
	C213.621613,291.428986 206.779282,279.536285 203.842957,265.635193 
	C202.747696,260.450165 200.607635,259.085846 195.526581,259.241333 
	C182.879333,259.628235 170.212082,259.402496 157.553406,259.331085 
	C155.674500,259.320496 153.614853,259.935059 151.808472,258.506927 
	C152.616714,256.166473 154.855759,256.032867 156.539093,255.211395 
	C162.642456,252.232986 165.773346,247.769257 165.733047,240.625671 
	C165.545990,207.479889 165.653290,174.332443 165.650620,141.185593 
	C165.649780,130.649796 164.635162,129.329468 154.652344,126.596230 
	C153.739731,126.346359 152.597046,126.547081 151.272156,124.240257 
	C158.047195,123.520782 164.304214,124.050056 171.000519,123.883072 
M245.955643,296.540985 
	C248.014114,298.485626 249.963776,300.562897 252.147644,302.354706 
	C277.766632,323.374634 310.275513,314.633514 321.551208,283.541077 
	C326.622284,269.557648 326.696869,255.103928 323.555695,240.714111 
	C319.052826,220.086319 310.128540,202.045761 291.974884,189.839157 
	C289.851196,188.411179 287.728058,186.703598 284.594391,186.927017 
	C283.728577,225.763168 263.759460,248.939255 226.166656,258.087463 
	C229.465332,272.569702 235.707916,285.167816 245.955643,296.540985 
M214.489243,129.166580 
	C206.236710,127.532158 197.892792,128.590836 189.594101,128.316040 
	C186.443710,128.211731 186.246948,130.278366 186.247650,132.633652 
	C186.259079,170.423309 186.254379,208.212967 186.246948,246.002625 
	C186.246582,247.904541 186.391052,249.723145 188.473267,250.583298 
	C192.557434,252.270493 196.593292,254.177536 201.507950,253.897461 
	C200.808823,212.858963 220.197021,187.415924 260.000580,178.196198 
	C256.461029,148.733124 237.908539,132.385635 214.489243,129.166580 
M234.950134,197.452652 
	C233.213669,200.283890 231.171951,202.974579 229.792557,205.970245 
	C223.184341,220.321365 222.157715,235.387085 224.443542,250.832397 
	C225.006638,254.637222 227.470200,254.018845 230.011002,253.389069 
	C244.913300,249.695282 254.203979,240.224472 258.699738,225.709885 
	C262.771057,212.565598 262.025848,199.093781 261.630646,185.636520 
	C261.538574,182.500107 259.892914,182.340500 257.246063,182.967361 
	C248.309311,185.083923 241.102798,189.794144 234.950134,197.452652 
z"/>
<path fill="#000000" opacity="1.000000" stroke="none" 
	d="
M225.045288,355.755890 
	C228.082001,355.995087 230.800491,355.108490 233.761734,356.946350 
	C231.525116,362.509583 226.732162,366.451416 224.069641,372.114960 
	C228.224701,373.965881 231.298279,372.682831 234.203659,369.406464 
	C235.048782,372.520905 235.699463,375.328552 230.972931,375.345917 
	C223.005508,375.375214 215.037903,375.353943 206.646149,375.353943 
	C206.778397,372.715881 207.600967,369.713989 203.351929,370.087830 
	C199.804138,370.399994 200.012970,372.459900 201.034393,374.811584 
	C198.779373,375.601410 197.024826,375.556976 194.721191,374.736267 
	C199.045670,368.973022 200.122910,361.791077 203.914658,355.753265 
	C207.576324,357.074219 207.377853,360.417511 208.784561,362.659607 
	C210.994324,366.181671 210.351593,372.671448 215.250565,372.935333 
	C219.253235,373.150940 220.642685,367.300659 223.292969,364.235596 
	C224.546951,362.785339 225.958847,361.297089 226.323349,359.080170 
	C222.873932,357.276978 220.596191,359.092682 218.446289,361.419708 
	C217.099564,356.035950 217.276199,355.884430 225.045288,355.755890 
z"/>
<path fill="#000000" opacity="1.000000" stroke="none" 
	d="
M179.163666,361.268127 
	C181.848877,370.050659 178.363968,375.107330 169.825043,375.353210 
	C166.862610,375.438538 163.895660,375.366791 160.757050,375.366791 
	C162.077362,368.871429 162.149841,362.895813 160.884323,356.865936 
	C167.236465,354.141357 174.438644,355.704315 179.163666,361.268127 
M171.368500,359.122498 
	C168.037277,357.699707 166.244171,358.592255 166.332397,362.421906 
	C166.378235,364.411621 166.364319,366.403412 166.340958,368.393829 
	C166.317917,370.358337 166.653946,372.120514 168.949982,372.564270 
	C171.112137,372.982147 172.853973,372.195251 174.136887,370.405701 
	C176.540894,367.052338 175.786926,363.110168 171.368500,359.122498 
z"/>
<path fill="#000000" opacity="1.000000" stroke="none" 
	d="
M253.070419,356.616608 
	C260.068085,354.932739 265.541534,357.484161 267.196899,362.896484 
	C268.745728,367.960480 266.089081,373.301086 261.174530,375.003021 
	C255.634399,376.921600 249.630417,374.748810 247.418182,370.024719 
	C245.076767,365.024750 247.033951,360.090332 253.070419,356.616608 
M256.024353,358.688232 
	C251.546631,361.632568 250.204391,365.922668 252.454590,369.970337 
	C253.513840,371.875702 255.029114,372.887543 257.260162,372.804626 
	C259.280518,372.729553 260.623962,371.744385 261.582184,370.007263 
	C264.247711,365.174896 262.140594,360.152985 256.024353,358.688232 
z"/>
<path fill="#000000" opacity="1.000000" stroke="none" 
	d="
M338.330627,375.369507 
	C333.450470,376.149109 336.198395,372.255066 335.156677,370.896332 
	C329.472382,369.687775 328.879395,370.095490 329.322235,374.880249 
	C327.572906,375.622833 325.830414,375.553131 323.567291,374.696533 
	C327.855499,368.921692 328.856323,361.668976 333.129181,355.083984 
	C338.385498,361.256165 338.535736,369.081940 343.527771,374.267822 
	C342.006897,375.981598 340.247467,375.147583 338.330627,375.369507 
z"/>
<path fill="#000000" opacity="1.000000" stroke="none" 
	d="
M307.215576,366.675842 
	C305.610138,363.209717 304.953491,359.676514 301.741425,357.239380 
	C304.844574,354.975555 307.585846,355.744629 310.702728,356.432312 
	C309.032074,360.589539 310.754730,363.799561 312.966675,367.550079 
	C315.253052,363.812958 317.483826,360.682770 315.476685,356.488953 
	C317.678894,355.406128 319.556702,355.747955 322.017120,356.393372 
	C318.659821,361.852448 316.856384,367.624878 314.516998,373.175201 
	C314.055969,374.269073 313.616852,375.404449 312.144348,375.290039 
	C310.763672,375.182770 310.282654,374.065308 309.832275,372.982635 
	C309.006195,370.996643 308.200012,369.002380 307.215576,366.675842 
z"/>
<path fill="#000000" opacity="1.000000" stroke="none" 
	d="
M272.669495,359.928314 
	C272.432098,358.476501 270.858887,357.210663 272.210846,356.447113 
	C274.423615,355.197388 276.891174,355.483398 279.788391,356.720001 
	C276.885193,359.956818 277.402649,363.610901 277.531189,367.204285 
	C277.600403,369.140198 276.923279,371.488892 279.292145,372.455170 
	C281.591858,373.393311 283.861908,372.923645 285.734314,371.109192 
	C286.187866,370.669647 286.730347,370.321869 287.286621,369.889435 
	C288.741974,374.445435 288.409393,375.175812 284.440491,375.317841 
	C280.314667,375.465454 276.179413,375.350708 271.505402,375.350708 
	C273.442596,370.099640 272.869293,365.202820 272.669495,359.928314 
z"/>
<path fill="#000000" opacity="1.000000" stroke="none" 
	d="
M297.840576,365.978699 
	C297.391357,369.198395 297.393311,371.967285 299.636780,374.552277 
	C296.874573,376.008667 294.464874,375.056702 291.703552,375.323059 
	C293.346466,368.830017 293.435272,362.728729 291.757233,356.544678 
	C294.198151,355.191254 296.562439,355.942627 299.463928,356.124542 
	C298.020660,359.478302 297.105865,362.440155 297.840576,365.978699 
z"/>
<path fill="#000000" opacity="1.000000" stroke="none" 
	d="
M187.239990,375.363037 
	C185.901794,375.268860 184.862396,375.493164 184.078506,374.642792 
	C186.482010,368.801117 186.224716,362.896881 184.351868,356.641937 
	C186.610046,355.255890 188.935776,355.904144 191.632202,356.398590 
	C189.974625,362.609467 189.202576,368.672363 191.844513,374.653809 
	C190.594604,375.821259 189.043030,375.243286 187.239990,375.363037 
z"/>
</svg>